<svg width="557" height="387" viewBox="0 0 557 387" fill="none" xmlns="http://www.w3.org/2000/svg">
<path d="m304.354 0 78.715 87.798-.405.331c-3.349 2.734-5.219 5.023-6.008 6.714-.394.845-.498 1.497-.428 1.962.067.44.292.744.664.935.395.204.99.296 1.789.198.792-.097 1.747-.378 2.826-.875 2.157-.993 4.763-2.827 7.479-5.667 2.776-2.902 9.647-8.736 18.358-15.83 8.722-7.105 19.319-15.498 29.57-23.53a4960 4960 0 0 1 38.768-30.031l.848-.65.013-.01.304.397-.303-.397 1.253-.96-.473 1.507c-10.813 34.42-19.785 53.83-47.066 88.012l23.271 4.363 67.282 40.868 28.269-22.211.237.646c3.263 8.886 4.697 15.768 4.591 22.546-.106 6.732-1.731 13.324-4.535 21.631 6.421 20.403 7.972 33.815 5.665 44.415-2.317 10.642-8.507 18.369-17.332 27.429l-.324.333-.356-.299c-8.17-6.867-14.943-11.839-23.241-15.533-8.285-3.688-18.12-6.114-32.422-7.845l-11.405 2.112c21.302 6.479 30.487 9.906 42.597 15.428l.796.363-.717.501c-8.027 5.621-15.119 9.134-24.108 10.486-8.971 1.349-19.793.539-35.272-2.404l-.015-.003-47.228-11.931c-21.457 22.898-34.215 35.354-62.319 53.316-1.963 2.596-3.128 4.737-3.59 7.182-.469 2.474-.229 5.316.732 9.329l.002.011.003.012 7.316 38.534c5.541 3.754 9.675 7.462 13.337 12.459 3.772 5.146 7.029 11.639 10.818 20.911l-.925.378-.078-.189h-64.96l-.489.101c-6.629-32.106-12.054-50.218-26.468-82.899l.457-.202-.499.03-1.856-30.621-9.645 26.18v9.048l-56.124-13.776.144-.499c7.994-27.785 8.845-42.127 7.3-51.592-.771-4.729-2.144-8.259-3.555-11.677l-.35-.847c-.802-1.932-1.603-3.862-2.289-5.975.506 23.959-2.534 42.129-11.369 58.568-9.285 17.275-24.94 32.582-49.452 50.689l-4.272 21.358a554 554 0 0 0 3.46 4.8c6.815 9.382 11.265 15.507 13.996 28.209l-.489.105v1H95.272l9.092-64.153 22.97-44.941-4.22-38.448c-4.778 9.474-6.344 18.621-6.767 39.052l-.005.263-.22.145c-23.05 15.136-40.941 23.915-58.627 27.585-17.693 3.672-35.134 2.221-57.263-3.017l.201-.848-.433.003v-1c15.601 0 30.504-11.224 45.994-28.335 10.786-11.914 21.789-26.601 33.46-42.178v-.001l.002-.003c5.075-6.774 10.276-13.716 15.64-20.672 35.343-45.831 77.726-92.196 137.241-93.451l.01.499.468-.177c9.205 24.26 18.622 40.59 32.079 52.335 13.013 11.358 29.853 18.471 54.067 24.267-43.601-30.959-67.617-56.844-70.757-85.789-3.19-29.406 15.19-61.745 55.777-105.476z" fill="#ffffff"/><path d="m412.742 268.513-40.332 42.884.131.302.016-.007-.016.007.006.013.343.79.987 2.273c.852 1.958 2.071 4.757 3.54 8.12a5201 5201 0 0 0 10.876 24.745c4 9.032 8.064 18.113 11.253 25.03 1.594 3.459 2.972 6.38 4.014 8.484.52 1.052.96 1.905 1.303 2.522.171.308.321.563.448.756q.095.147.182.257c.053.067.123.148.207.211.146.109.343.174.511.219.187.05.419.096.686.139.534.085 1.247.163 2.106.235 1.72.145 4.061.268 6.806.374 5.491.211 12.621.352 19.684.445a2273 2273 0 0 0 25.617.185l2.389.003.001-.066V386l-.001.5h.794l-.342-.716c-4.129-8.635-7.659-15.097-11.978-20.757-4.296-5.629-9.359-10.447-16.538-15.826zm-191.05 52.462-9.711 20.956 7.597 44.569h59.629l-.235-.666c-6.133-17.382-11.338-26.058-23.472-39.526v-22.772zM545.984 32.126l.447-1.723-1.279 1.238c-29.394 28.453-46.68 44.23-81.958 71.463l-.561.434 34.471 22.123.282-.344c15.61-18.995 25.49-33.527 32.603-47.702 7.114-14.177 11.451-27.977 15.995-45.49" fill="#ffffff"/><path d="M439.5 176c8.008 0 14.5-6.492 14.5-14.5s-6.492-14.5-14.5-14.5-14.5 6.492-14.5 14.5 6.492 14.5 14.5 14.5m85.079 26.082c1.089.022 1.976.192 3.031.43l.127.029.096.086c1.059.946 1.845 1.847 2.43 3.126.579 1.263.947 2.864 1.233 5.186l.022.171-.09.148c-.75 1.244-1.524 2.13-2.673 2.513-1.127.375-2.511.231-4.388-.289l-.088-.024-5.582-4.06c-.709-.54-1.222-1.071-1.505-1.63a2.16 2.16 0 0 1-.12-1.76c.197-.561.601-1.099 1.122-1.637.524-.543 1.202-1.122 1.992-1.76l.1-.081.126-.022c1.82-.325 3.083-.449 4.167-.426" fill="#001B14"/></svg>