<svg width="1500" height="1500" xmlns="http://www.w3.org/2000/svg">
 <g id="Layer_1">
  <title>Layer 1</title>
  <path transform="rotate(45 1441.25 1415)" stroke-width="0" id="svg_1" d="m1399.99999,1160.32985l82.49998,0l0,509.33984l-82.49998,0l0,-509.33984z" opacity="undefined" fill="#69c347"/>
  <path transform="rotate(45 1316.75 1317.5)" stroke="null" stroke-width="0" id="svg_2" d="m1275.5007,998.48393l82.49999,0l0,638.03265l-82.49999,0l0,-638.03265z" opacity="undefined" fill="#69c347"/>
  <path transform="rotate(45 1206.25 1198)" stroke="null" stroke-width="0" id="svg_3" d="m1165.0009,683.11698l82.49999,0l0,1029.76809l-82.49999,0l0,-1029.76809z" opacity="undefined" fill="#69c347"/>
  <path transform="rotate(45 1110.75 1085.5)" stroke="null" stroke-width="0" id="svg_4" d="m1069.50079,445.46035l82.49999,0l0,1280.08278l-82.49999,0l0,-1280.08278z" opacity="undefined" fill="#69c347"/>
  <path transform="rotate(45 972.75 989.502)" stroke="null" stroke-width="0" id="svg_5" d="m931.49987,176.92754l82.49999,0l0,1625.14939l-82.49999,0l0,-1625.14939z" opacity="undefined" fill="#69c347"/>
 </g>
</svg>